ISO-10303-21;
HEADER;
FILE_DESCRIPTION(('FreeCAD Model'),'2;1');
FILE_NAME('Open CASCADE Shape Model','2026-04-20T15:11:26',(''),(''),
  'Open CASCADE STEP processor 7.8','FreeCAD','Unknown');
FILE_SCHEMA(('AUTOMOTIVE_DESIGN { 1 0 10303 214 1 1 1 1 }'));
ENDSEC;
DATA;
#1 = APPLICATION_PROTOCOL_DEFINITION('international standard',
  'automotive_design',2000,#2);
#2 = APPLICATION_CONTEXT(
  'core data for automotive mechanical design processes');
#3 = SHAPE_DEFINITION_REPRESENTATION(#4,#10);
#4 = PRODUCT_DEFINITION_SHAPE('','',#5);
#5 = PRODUCT_DEFINITION('design','',#6,#9);
#6 = PRODUCT_DEFINITION_FORMATION('','',#7);
#7 = PRODUCT('Body','Body','',(#8));
#8 = PRODUCT_CONTEXT('',#2,'mechanical');
#9 = PRODUCT_DEFINITION_CONTEXT('part definition',#2,'design');
#10 = ADVANCED_BREP_SHAPE_REPRESENTATION('',(#11,#15),#670);
#11 = AXIS2_PLACEMENT_3D('',#12,#13,#14);
#12 = CARTESIAN_POINT('',(0.,0.,0.));
#13 = DIRECTION('',(0.,0.,1.));
#14 = DIRECTION('',(1.,0.,-0.));
#15 = MANIFOLD_SOLID_BREP('',#16);
#16 = CLOSED_SHELL('',(#17,#57,#88,#119,#176,#233,#250,#267,#284,#301,
    #418,#438,#456,#466,#491,#516,#541,#566,#591,#616,#625,#634,#643,
    #652,#661));
#17 = ADVANCED_FACE('',(#18),#52,.F.);
#18 = FACE_BOUND('',#19,.F.);
#19 = EDGE_LOOP('',(#20,#30,#38,#46));
#20 = ORIENTED_EDGE('',*,*,#21,.T.);
#21 = EDGE_CURVE('',#22,#24,#26,.T.);
#22 = VERTEX_POINT('',#23);
#23 = CARTESIAN_POINT('',(0.,0.,0.));
#24 = VERTEX_POINT('',#25);
#25 = CARTESIAN_POINT('',(0.,0.,60.));
#26 = LINE('',#27,#28);
#27 = CARTESIAN_POINT('',(0.,0.,0.));
#28 = VECTOR('',#29,1.);
#29 = DIRECTION('',(0.,0.,1.));
#30 = ORIENTED_EDGE('',*,*,#31,.T.);
#31 = EDGE_CURVE('',#24,#32,#34,.T.);
#32 = VERTEX_POINT('',#33);
#33 = CARTESIAN_POINT('',(0.,50.,60.));
#34 = LINE('',#35,#36);
#35 = CARTESIAN_POINT('',(0.,0.,60.));
#36 = VECTOR('',#37,1.);
#37 = DIRECTION('',(0.,1.,0.));
#38 = ORIENTED_EDGE('',*,*,#39,.F.);
#39 = EDGE_CURVE('',#40,#32,#42,.T.);
#40 = VERTEX_POINT('',#41);
#41 = CARTESIAN_POINT('',(0.,50.,0.));
#42 = LINE('',#43,#44);
#43 = CARTESIAN_POINT('',(0.,50.,0.));
#44 = VECTOR('',#45,1.);
#45 = DIRECTION('',(0.,0.,1.));
#46 = ORIENTED_EDGE('',*,*,#47,.F.);
#47 = EDGE_CURVE('',#22,#40,#48,.T.);
#48 = LINE('',#49,#50);
#49 = CARTESIAN_POINT('',(0.,0.,0.));
#50 = VECTOR('',#51,1.);
#51 = DIRECTION('',(0.,1.,0.));
#52 = PLANE('',#53);
#53 = AXIS2_PLACEMENT_3D('',#54,#55,#56);
#54 = CARTESIAN_POINT('',(0.,0.,0.));
#55 = DIRECTION('',(-1.,0.,0.));
#56 = DIRECTION('',(0.,1.,0.));
#57 = ADVANCED_FACE('',(#58),#83,.F.);
#58 = FACE_BOUND('',#59,.F.);
#59 = EDGE_LOOP('',(#60,#70,#76,#77));
#60 = ORIENTED_EDGE('',*,*,#61,.T.);
#61 = EDGE_CURVE('',#62,#64,#66,.T.);
#62 = VERTEX_POINT('',#63);
#63 = CARTESIAN_POINT('',(-15.,0.,0.));
#64 = VERTEX_POINT('',#65);
#65 = CARTESIAN_POINT('',(-15.,0.,60.));
#66 = LINE('',#67,#68);
#67 = CARTESIAN_POINT('',(-15.,0.,0.));
#68 = VECTOR('',#69,1.);
#69 = DIRECTION('',(0.,0.,1.));
#70 = ORIENTED_EDGE('',*,*,#71,.T.);
#71 = EDGE_CURVE('',#64,#24,#72,.T.);
#72 = LINE('',#73,#74);
#73 = CARTESIAN_POINT('',(-15.,0.,60.));
#74 = VECTOR('',#75,1.);
#75 = DIRECTION('',(1.,0.,0.));
#76 = ORIENTED_EDGE('',*,*,#21,.F.);
#77 = ORIENTED_EDGE('',*,*,#78,.F.);
#78 = EDGE_CURVE('',#62,#22,#79,.T.);
#79 = LINE('',#80,#81);
#80 = CARTESIAN_POINT('',(-15.,0.,0.));
#81 = VECTOR('',#82,1.);
#82 = DIRECTION('',(1.,0.,0.));
#83 = PLANE('',#84);
#84 = AXIS2_PLACEMENT_3D('',#85,#86,#87);
#85 = CARTESIAN_POINT('',(-15.,0.,0.));
#86 = DIRECTION('',(0.,1.,0.));
#87 = DIRECTION('',(1.,0.,0.));
#88 = ADVANCED_FACE('',(#89),#114,.F.);
#89 = FACE_BOUND('',#90,.F.);
#90 = EDGE_LOOP('',(#91,#92,#100,#108));
#91 = ORIENTED_EDGE('',*,*,#39,.T.);
#92 = ORIENTED_EDGE('',*,*,#93,.T.);
#93 = EDGE_CURVE('',#32,#94,#96,.T.);
#94 = VERTEX_POINT('',#95);
#95 = CARTESIAN_POINT('',(38.,50.,60.));
#96 = LINE('',#97,#98);
#97 = CARTESIAN_POINT('',(0.,50.,60.));
#98 = VECTOR('',#99,1.);
#99 = DIRECTION('',(1.,0.,0.));
#100 = ORIENTED_EDGE('',*,*,#101,.F.);
#101 = EDGE_CURVE('',#102,#94,#104,.T.);
#102 = VERTEX_POINT('',#103);
#103 = CARTESIAN_POINT('',(38.,50.,0.));
#104 = LINE('',#105,#106);
#105 = CARTESIAN_POINT('',(38.,50.,0.));
#106 = VECTOR('',#107,1.);
#107 = DIRECTION('',(0.,0.,1.));
#108 = ORIENTED_EDGE('',*,*,#109,.F.);
#109 = EDGE_CURVE('',#40,#102,#110,.T.);
#110 = LINE('',#111,#112);
#111 = CARTESIAN_POINT('',(0.,50.,0.));
#112 = VECTOR('',#113,1.);
#113 = DIRECTION('',(1.,0.,0.));
#114 = PLANE('',#115);
#115 = AXIS2_PLACEMENT_3D('',#116,#117,#118);
#116 = CARTESIAN_POINT('',(0.,50.,0.));
#117 = DIRECTION('',(0.,1.,0.));
#118 = DIRECTION('',(1.,0.,0.));
#119 = ADVANCED_FACE('',(#120),#171,.F.);
#120 = FACE_BOUND('',#121,.F.);
#121 = EDGE_LOOP('',(#122,#123,#124,#132,#140,#148,#156,#164,#170));
#122 = ORIENTED_EDGE('',*,*,#47,.T.);
#123 = ORIENTED_EDGE('',*,*,#109,.T.);
#124 = ORIENTED_EDGE('',*,*,#125,.T.);
#125 = EDGE_CURVE('',#102,#126,#128,.T.);
#126 = VERTEX_POINT('',#127);
#127 = CARTESIAN_POINT('',(38.,0.,0.));
#128 = LINE('',#129,#130);
#129 = CARTESIAN_POINT('',(38.,50.,0.));
#130 = VECTOR('',#131,1.);
#131 = DIRECTION('',(0.,-1.,0.));
#132 = ORIENTED_EDGE('',*,*,#133,.T.);
#133 = EDGE_CURVE('',#126,#134,#136,.T.);
#134 = VERTEX_POINT('',#135);
#135 = CARTESIAN_POINT('',(72.833395016046,-130.,0.));
#136 = LINE('',#137,#138);
#137 = CARTESIAN_POINT('',(38.,0.,0.));
#138 = VECTOR('',#139,1.);
#139 = DIRECTION('',(0.258819045103,-0.965925826289,0.));
#140 = ORIENTED_EDGE('',*,*,#141,.T.);
#141 = EDGE_CURVE('',#134,#142,#144,.T.);
#142 = VERTEX_POINT('',#143);
#143 = CARTESIAN_POINT('',(130.78894459339,-114.4708572938,0.));
#144 = LINE('',#145,#146);
#145 = CARTESIAN_POINT('',(72.833395016046,-130.,0.));
#146 = VECTOR('',#147,1.);
#147 = DIRECTION('',(0.965925826289,0.258819045103,0.));
#148 = ORIENTED_EDGE('',*,*,#149,.T.);
#149 = EDGE_CURVE('',#142,#150,#152,.T.);
#150 = VERTEX_POINT('',#151);
#151 = CARTESIAN_POINT('',(85.,65.,0.));
#152 = LINE('',#153,#154);
#153 = CARTESIAN_POINT('',(130.78894459339,-114.4708572938,0.));
#154 = VECTOR('',#155,1.);
#155 = DIRECTION('',(-0.24721394111,0.968960921462,0.));
#156 = ORIENTED_EDGE('',*,*,#157,.T.);
#157 = EDGE_CURVE('',#150,#158,#160,.T.);
#158 = VERTEX_POINT('',#159);
#159 = CARTESIAN_POINT('',(-15.,65.,0.));
#160 = LINE('',#161,#162);
#161 = CARTESIAN_POINT('',(85.,65.,0.));
#162 = VECTOR('',#163,1.);
#163 = DIRECTION('',(-1.,0.,0.));
#164 = ORIENTED_EDGE('',*,*,#165,.T.);
#165 = EDGE_CURVE('',#158,#62,#166,.T.);
#166 = LINE('',#167,#168);
#167 = CARTESIAN_POINT('',(-15.,65.,0.));
#168 = VECTOR('',#169,1.);
#169 = DIRECTION('',(0.,-1.,0.));
#170 = ORIENTED_EDGE('',*,*,#78,.T.);
#171 = PLANE('',#172);
#172 = AXIS2_PLACEMENT_3D('',#173,#174,#175);
#173 = CARTESIAN_POINT('',(55.295728891604,-10.96465979632,0.));
#174 = DIRECTION('',(0.,0.,1.));
#175 = DIRECTION('',(1.,0.,0.));
#176 = ADVANCED_FACE('',(#177),#228,.T.);
#177 = FACE_BOUND('',#178,.T.);
#178 = EDGE_LOOP('',(#179,#180,#181,#189,#197,#205,#213,#221,#227));
#179 = ORIENTED_EDGE('',*,*,#31,.T.);
#180 = ORIENTED_EDGE('',*,*,#93,.T.);
#181 = ORIENTED_EDGE('',*,*,#182,.T.);
#182 = EDGE_CURVE('',#94,#183,#185,.T.);
#183 = VERTEX_POINT('',#184);
#184 = CARTESIAN_POINT('',(38.,0.,60.));
#185 = LINE('',#186,#187);
#186 = CARTESIAN_POINT('',(38.,50.,60.));
#187 = VECTOR('',#188,1.);
#188 = DIRECTION('',(0.,-1.,0.));
#189 = ORIENTED_EDGE('',*,*,#190,.T.);
#190 = EDGE_CURVE('',#183,#191,#193,.T.);
#191 = VERTEX_POINT('',#192);
#192 = CARTESIAN_POINT('',(72.833395016046,-130.,60.));
#193 = LINE('',#194,#195);
#194 = CARTESIAN_POINT('',(38.,0.,60.));
#195 = VECTOR('',#196,1.);
#196 = DIRECTION('',(0.258819045103,-0.965925826289,0.));
#197 = ORIENTED_EDGE('',*,*,#198,.T.);
#198 = EDGE_CURVE('',#191,#199,#201,.T.);
#199 = VERTEX_POINT('',#200);
#200 = CARTESIAN_POINT('',(130.78894459339,-114.4708572938,60.));
#201 = LINE('',#202,#203);
#202 = CARTESIAN_POINT('',(72.833395016046,-130.,60.));
#203 = VECTOR('',#204,1.);
#204 = DIRECTION('',(0.965925826289,0.258819045103,0.));
#205 = ORIENTED_EDGE('',*,*,#206,.T.);
#206 = EDGE_CURVE('',#199,#207,#209,.T.);
#207 = VERTEX_POINT('',#208);
#208 = CARTESIAN_POINT('',(85.,65.,60.));
#209 = LINE('',#210,#211);
#210 = CARTESIAN_POINT('',(130.78894459339,-114.4708572938,60.));
#211 = VECTOR('',#212,1.);
#212 = DIRECTION('',(-0.24721394111,0.968960921462,0.));
#213 = ORIENTED_EDGE('',*,*,#214,.T.);
#214 = EDGE_CURVE('',#207,#215,#217,.T.);
#215 = VERTEX_POINT('',#216);
#216 = CARTESIAN_POINT('',(-15.,65.,60.));
#217 = LINE('',#218,#219);
#218 = CARTESIAN_POINT('',(85.,65.,60.));
#219 = VECTOR('',#220,1.);
#220 = DIRECTION('',(-1.,0.,0.));
#221 = ORIENTED_EDGE('',*,*,#222,.T.);
#222 = EDGE_CURVE('',#215,#64,#223,.T.);
#223 = LINE('',#224,#225);
#224 = CARTESIAN_POINT('',(-15.,65.,60.));
#225 = VECTOR('',#226,1.);
#226 = DIRECTION('',(0.,-1.,0.));
#227 = ORIENTED_EDGE('',*,*,#71,.T.);
#228 = PLANE('',#229);
#229 = AXIS2_PLACEMENT_3D('',#230,#231,#232);
#230 = CARTESIAN_POINT('',(55.295728891604,-10.96465979632,60.));
#231 = DIRECTION('',(0.,0.,1.));
#232 = DIRECTION('',(1.,0.,0.));
#233 = ADVANCED_FACE('',(#234),#245,.F.);
#234 = FACE_BOUND('',#235,.F.);
#235 = EDGE_LOOP('',(#236,#242,#243,#244));
#236 = ORIENTED_EDGE('',*,*,#237,.T.);
#237 = EDGE_CURVE('',#158,#215,#238,.T.);
#238 = LINE('',#239,#240);
#239 = CARTESIAN_POINT('',(-15.,65.,0.));
#240 = VECTOR('',#241,1.);
#241 = DIRECTION('',(0.,0.,1.));
#242 = ORIENTED_EDGE('',*,*,#222,.T.);
#243 = ORIENTED_EDGE('',*,*,#61,.F.);
#244 = ORIENTED_EDGE('',*,*,#165,.F.);
#245 = PLANE('',#246);
#246 = AXIS2_PLACEMENT_3D('',#247,#248,#249);
#247 = CARTESIAN_POINT('',(-15.,65.,0.));
#248 = DIRECTION('',(1.,0.,0.));
#249 = DIRECTION('',(0.,-1.,0.));
#250 = ADVANCED_FACE('',(#251),#262,.F.);
#251 = FACE_BOUND('',#252,.F.);
#252 = EDGE_LOOP('',(#253,#254,#255,#261));
#253 = ORIENTED_EDGE('',*,*,#101,.T.);
#254 = ORIENTED_EDGE('',*,*,#182,.T.);
#255 = ORIENTED_EDGE('',*,*,#256,.F.);
#256 = EDGE_CURVE('',#126,#183,#257,.T.);
#257 = LINE('',#258,#259);
#258 = CARTESIAN_POINT('',(38.,0.,0.));
#259 = VECTOR('',#260,1.);
#260 = DIRECTION('',(0.,0.,1.));
#261 = ORIENTED_EDGE('',*,*,#125,.F.);
#262 = PLANE('',#263);
#263 = AXIS2_PLACEMENT_3D('',#264,#265,#266);
#264 = CARTESIAN_POINT('',(38.,50.,0.));
#265 = DIRECTION('',(1.,0.,0.));
#266 = DIRECTION('',(0.,-1.,0.));
#267 = ADVANCED_FACE('',(#268),#279,.F.);
#268 = FACE_BOUND('',#269,.F.);
#269 = EDGE_LOOP('',(#270,#271,#272,#278));
#270 = ORIENTED_EDGE('',*,*,#256,.T.);
#271 = ORIENTED_EDGE('',*,*,#190,.T.);
#272 = ORIENTED_EDGE('',*,*,#273,.F.);
#273 = EDGE_CURVE('',#134,#191,#274,.T.);
#274 = LINE('',#275,#276);
#275 = CARTESIAN_POINT('',(72.833395016046,-130.,0.));
#276 = VECTOR('',#277,1.);
#277 = DIRECTION('',(0.,0.,1.));
#278 = ORIENTED_EDGE('',*,*,#133,.F.);
#279 = PLANE('',#280);
#280 = AXIS2_PLACEMENT_3D('',#281,#282,#283);
#281 = CARTESIAN_POINT('',(38.,0.,0.));
#282 = DIRECTION('',(0.965925826289,0.258819045103,0.));
#283 = DIRECTION('',(0.258819045103,-0.965925826289,0.));
#284 = ADVANCED_FACE('',(#285),#296,.F.);
#285 = FACE_BOUND('',#286,.F.);
#286 = EDGE_LOOP('',(#287,#288,#289,#295));
#287 = ORIENTED_EDGE('',*,*,#273,.T.);
#288 = ORIENTED_EDGE('',*,*,#198,.T.);
#289 = ORIENTED_EDGE('',*,*,#290,.F.);
#290 = EDGE_CURVE('',#142,#199,#291,.T.);
#291 = LINE('',#292,#293);
#292 = CARTESIAN_POINT('',(130.78894459339,-114.4708572938,0.));
#293 = VECTOR('',#294,1.);
#294 = DIRECTION('',(0.,0.,1.));
#295 = ORIENTED_EDGE('',*,*,#141,.F.);
#296 = PLANE('',#297);
#297 = AXIS2_PLACEMENT_3D('',#298,#299,#300);
#298 = CARTESIAN_POINT('',(72.833395016046,-130.,0.));
#299 = DIRECTION('',(-0.258819045103,0.965925826289,0.));
#300 = DIRECTION('',(0.965925826289,0.258819045103,0.));
#301 = ADVANCED_FACE('',(#302,#347,#358,#369,#380,#391,#402),#413,.F.);
#302 = FACE_BOUND('',#303,.F.);
#303 = EDGE_LOOP('',(#304,#305,#306,#307,#315,#324,#332,#341));
#304 = ORIENTED_EDGE('',*,*,#149,.F.);
#305 = ORIENTED_EDGE('',*,*,#290,.T.);
#306 = ORIENTED_EDGE('',*,*,#206,.T.);
#307 = ORIENTED_EDGE('',*,*,#308,.F.);
#308 = EDGE_CURVE('',#309,#207,#311,.T.);
#309 = VERTEX_POINT('',#310);
#310 = CARTESIAN_POINT('',(85.,65.,48.468852903477));
#311 = LINE('',#312,#313);
#312 = CARTESIAN_POINT('',(85.,65.,0.));
#313 = VECTOR('',#314,1.);
#314 = DIRECTION('',(0.,0.,1.));
#315 = ORIENTED_EDGE('',*,*,#316,.F.);
#316 = EDGE_CURVE('',#317,#309,#319,.T.);
#317 = VERTEX_POINT('',#318);
#318 = CARTESIAN_POINT('',(124.75129184177,-90.80613374546,
    48.254830141553));
#319 = ELLIPSE('',#320,1.542282281787E+03,18.5);
#320 = AXIS2_PLACEMENT_3D('',#321,#322,#323);
#321 = CARTESIAN_POINT('',(62.884749088284,151.68125189693,30.));
#322 = DIRECTION('',(-0.968960921462,-0.24721394111,0.));
#323 = DIRECTION('',(0.24721394111,-0.968960921462,2.2167823873E-16));
#324 = ORIENTED_EDGE('',*,*,#325,.T.);
#325 = EDGE_CURVE('',#317,#326,#328,.T.);
#326 = VERTEX_POINT('',#327);
#327 = CARTESIAN_POINT('',(124.75129184177,-90.80613374546,
    11.745169858447));
#328 = LINE('',#329,#330);
#329 = CARTESIAN_POINT('',(124.75129184177,-90.80613374546,15.));
#330 = VECTOR('',#331,1.);
#331 = DIRECTION('',(7.837662274608E-17,-3.071990368187E-16,-1.));
#332 = ORIENTED_EDGE('',*,*,#333,.F.);
#333 = EDGE_CURVE('',#334,#326,#336,.T.);
#334 = VERTEX_POINT('',#335);
#335 = CARTESIAN_POINT('',(85.,65.,11.531147096523));
#336 = ELLIPSE('',#337,1.542282281787E+03,18.5);
#337 = AXIS2_PLACEMENT_3D('',#338,#339,#340);
#338 = CARTESIAN_POINT('',(62.884749088284,151.68125189693,30.));
#339 = DIRECTION('',(-0.968960921462,-0.24721394111,0.));
#340 = DIRECTION('',(0.24721394111,-0.968960921462,2.2167823873E-16));
#341 = ORIENTED_EDGE('',*,*,#342,.F.);
#342 = EDGE_CURVE('',#150,#334,#343,.T.);
#343 = LINE('',#344,#345);
#344 = CARTESIAN_POINT('',(85.,65.,0.));
#345 = VECTOR('',#346,1.);
#346 = DIRECTION('',(0.,0.,1.));
#347 = FACE_BOUND('',#348,.F.);
#348 = EDGE_LOOP('',(#349));
#349 = ORIENTED_EDGE('',*,*,#350,.T.);
#350 = EDGE_CURVE('',#351,#351,#353,.T.);
#351 = VERTEX_POINT('',#352);
#352 = CARTESIAN_POINT('',(109.56547007343,-31.28494417281,53.));
#353 = CIRCLE('',#354,2.6);
#354 = AXIS2_PLACEMENT_3D('',#355,#356,#357);
#355 = CARTESIAN_POINT('',(110.20822632032,-33.80424256861,53.));
#356 = DIRECTION('',(0.968960921462,0.24721394111,-0.));
#357 = DIRECTION('',(-0.24721394111,0.968960921462,0.));
#358 = FACE_BOUND('',#359,.F.);
#359 = EDGE_LOOP('',(#360));
#360 = ORIENTED_EDGE('',*,*,#361,.T.);
#361 = EDGE_CURVE('',#362,#362,#364,.T.);
#362 = VERTEX_POINT('',#363);
#363 = CARTESIAN_POINT('',(100.91298213459,2.628688078366,53.));
#364 = CIRCLE('',#365,2.6);
#365 = AXIS2_PLACEMENT_3D('',#366,#367,#368);
#366 = CARTESIAN_POINT('',(101.55573838147,0.109389682564,53.));
#367 = DIRECTION('',(0.968960921462,0.24721394111,-0.));
#368 = DIRECTION('',(-0.24721394111,0.968960921462,0.));
#369 = FACE_BOUND('',#370,.F.);
#370 = EDGE_LOOP('',(#371));
#371 = ORIENTED_EDGE('',*,*,#372,.T.);
#372 = EDGE_CURVE('',#373,#373,#375,.T.);
#373 = VERTEX_POINT('',#374);
#374 = CARTESIAN_POINT('',(92.260494195743,36.542320329543,53.));
#375 = CIRCLE('',#376,2.6);
#376 = AXIS2_PLACEMENT_3D('',#377,#378,#379);
#377 = CARTESIAN_POINT('',(92.903250442629,34.023021933741,53.));
#378 = DIRECTION('',(0.968960921462,0.24721394111,-0.));
#379 = DIRECTION('',(-0.24721394111,0.968960921462,0.));
#380 = FACE_BOUND('',#381,.F.);
#381 = EDGE_LOOP('',(#382));
#382 = ORIENTED_EDGE('',*,*,#383,.T.);
#383 = EDGE_CURVE('',#384,#384,#386,.T.);
#384 = VERTEX_POINT('',#385);
#385 = CARTESIAN_POINT('',(109.56547007343,-31.28494417281,7.));
#386 = CIRCLE('',#387,2.6);
#387 = AXIS2_PLACEMENT_3D('',#388,#389,#390);
#388 = CARTESIAN_POINT('',(110.20822632032,-33.80424256861,7.));
#389 = DIRECTION('',(0.968960921462,0.24721394111,-0.));
#390 = DIRECTION('',(-0.24721394111,0.968960921462,0.));
#391 = FACE_BOUND('',#392,.F.);
#392 = EDGE_LOOP('',(#393));
#393 = ORIENTED_EDGE('',*,*,#394,.T.);
#394 = EDGE_CURVE('',#395,#395,#397,.T.);
#395 = VERTEX_POINT('',#396);
#396 = CARTESIAN_POINT('',(100.91298213459,2.628688078366,7.));
#397 = CIRCLE('',#398,2.6);
#398 = AXIS2_PLACEMENT_3D('',#399,#400,#401);
#399 = CARTESIAN_POINT('',(101.55573838147,0.109389682564,7.));
#400 = DIRECTION('',(0.968960921462,0.24721394111,-0.));
#401 = DIRECTION('',(-0.24721394111,0.968960921462,0.));
#402 = FACE_BOUND('',#403,.F.);
#403 = EDGE_LOOP('',(#404));
#404 = ORIENTED_EDGE('',*,*,#405,.T.);
#405 = EDGE_CURVE('',#406,#406,#408,.T.);
#406 = VERTEX_POINT('',#407);
#407 = CARTESIAN_POINT('',(92.260494195743,36.542320329543,7.));
#408 = CIRCLE('',#409,2.6);
#409 = AXIS2_PLACEMENT_3D('',#410,#411,#412);
#410 = CARTESIAN_POINT('',(92.903250442629,34.023021933741,7.));
#411 = DIRECTION('',(0.968960921462,0.24721394111,-0.));
#412 = DIRECTION('',(-0.24721394111,0.968960921462,0.));
#413 = PLANE('',#414);
#414 = AXIS2_PLACEMENT_3D('',#415,#416,#417);
#415 = CARTESIAN_POINT('',(130.78894459339,-114.4708572938,0.));
#416 = DIRECTION('',(-0.968960921462,-0.24721394111,0.));
#417 = DIRECTION('',(-0.24721394111,0.968960921462,0.));
#418 = ADVANCED_FACE('',(#419),#433,.F.);
#419 = FACE_BOUND('',#420,.F.);
#420 = EDGE_LOOP('',(#421,#422,#423,#430,#431,#432));
#421 = ORIENTED_EDGE('',*,*,#157,.F.);
#422 = ORIENTED_EDGE('',*,*,#342,.T.);
#423 = ORIENTED_EDGE('',*,*,#424,.F.);
#424 = EDGE_CURVE('',#309,#334,#425,.T.);
#425 = ELLIPSE('',#426,19.152609337587,18.5);
#426 = AXIS2_PLACEMENT_3D('',#427,#428,#429);
#427 = CARTESIAN_POINT('',(86.110920532985,65.,30.));
#428 = DIRECTION('',(0.,-1.,0.));
#429 = DIRECTION('',(1.,0.,8.564373227424E-16));
#430 = ORIENTED_EDGE('',*,*,#308,.T.);
#431 = ORIENTED_EDGE('',*,*,#214,.T.);
#432 = ORIENTED_EDGE('',*,*,#237,.F.);
#433 = PLANE('',#434);
#434 = AXIS2_PLACEMENT_3D('',#435,#436,#437);
#435 = CARTESIAN_POINT('',(85.,65.,0.));
#436 = DIRECTION('',(0.,-1.,0.));
#437 = DIRECTION('',(-1.,0.,0.));
#438 = ADVANCED_FACE('',(#439),#451,.F.);
#439 = FACE_BOUND('',#440,.F.);
#440 = EDGE_LOOP('',(#441,#448,#449,#450));
#441 = ORIENTED_EDGE('',*,*,#442,.F.);
#442 = EDGE_CURVE('',#317,#326,#443,.T.);
#443 = CIRCLE('',#444,18.5);
#444 = AXIS2_PLACEMENT_3D('',#445,#446,#447);
#445 = CARTESIAN_POINT('',(127.6508680412,-90.02919464443,30.));
#446 = DIRECTION('',(0.258819045103,-0.965925826289,2.216622900623E-16)
  );
#447 = DIRECTION('',(0.965925826289,0.258819045103,-2.775557561563E-17)
  );
#448 = ORIENTED_EDGE('',*,*,#316,.T.);
#449 = ORIENTED_EDGE('',*,*,#424,.T.);
#450 = ORIENTED_EDGE('',*,*,#333,.T.);
#451 = CYLINDRICAL_SURFACE('',#452,18.5);
#452 = AXIS2_PLACEMENT_3D('',#453,#454,#455);
#453 = CARTESIAN_POINT('',(127.6508680412,-90.02919464443,30.));
#454 = DIRECTION('',(0.258819045103,-0.965925826289,2.216622900623E-16)
  );
#455 = DIRECTION('',(0.965925826289,0.258819045103,-2.775557561563E-17)
  );
#456 = ADVANCED_FACE('',(#457),#461,.T.);
#457 = FACE_BOUND('',#458,.T.);
#458 = EDGE_LOOP('',(#459,#460));
#459 = ORIENTED_EDGE('',*,*,#442,.F.);
#460 = ORIENTED_EDGE('',*,*,#325,.T.);
#461 = PLANE('',#462);
#462 = AXIS2_PLACEMENT_3D('',#463,#464,#465);
#463 = CARTESIAN_POINT('',(127.6508680412,-90.02919464443,30.));
#464 = DIRECTION('',(-0.258819045103,0.965925826289,-3.170168461319E-16)
  );
#465 = DIRECTION('',(0.965925826289,0.258819045103,1.232595164408E-32));
#466 = ADVANCED_FACE('',(#467),#486,.F.);
#467 = FACE_BOUND('',#468,.F.);
#468 = EDGE_LOOP('',(#469,#477,#484,#485));
#469 = ORIENTED_EDGE('',*,*,#470,.T.);
#470 = EDGE_CURVE('',#351,#471,#473,.T.);
#471 = VERTEX_POINT('',#472);
#472 = CARTESIAN_POINT('',(95.031056251506,-34.99315328946,53.));
#473 = LINE('',#474,#475);
#474 = CARTESIAN_POINT('',(109.56547007343,-31.28494417281,53.));
#475 = VECTOR('',#476,1.);
#476 = DIRECTION('',(-0.968960921462,-0.24721394111,-0.));
#477 = ORIENTED_EDGE('',*,*,#478,.T.);
#478 = EDGE_CURVE('',#471,#471,#479,.T.);
#479 = CIRCLE('',#480,2.6);
#480 = AXIS2_PLACEMENT_3D('',#481,#482,#483);
#481 = CARTESIAN_POINT('',(95.673812498392,-37.51245168526,53.));
#482 = DIRECTION('',(0.968960921462,0.24721394111,-0.));
#483 = DIRECTION('',(-0.24721394111,0.968960921462,0.));
#484 = ORIENTED_EDGE('',*,*,#470,.F.);
#485 = ORIENTED_EDGE('',*,*,#350,.F.);
#486 = CYLINDRICAL_SURFACE('',#487,2.6);
#487 = AXIS2_PLACEMENT_3D('',#488,#489,#490);
#488 = CARTESIAN_POINT('',(110.20822632032,-33.80424256861,53.));
#489 = DIRECTION('',(0.968960921462,0.24721394111,0.));
#490 = DIRECTION('',(-0.24721394111,0.968960921462,0.));
#491 = ADVANCED_FACE('',(#492),#511,.F.);
#492 = FACE_BOUND('',#493,.F.);
#493 = EDGE_LOOP('',(#494,#502,#509,#510));
#494 = ORIENTED_EDGE('',*,*,#495,.T.);
#495 = EDGE_CURVE('',#362,#496,#498,.T.);
#496 = VERTEX_POINT('',#497);
#497 = CARTESIAN_POINT('',(86.378568312658,-1.079521038284,53.));
#498 = LINE('',#499,#500);
#499 = CARTESIAN_POINT('',(100.91298213459,2.628688078366,53.));
#500 = VECTOR('',#501,1.);
#501 = DIRECTION('',(-0.968960921462,-0.24721394111,-0.));
#502 = ORIENTED_EDGE('',*,*,#503,.T.);
#503 = EDGE_CURVE('',#496,#496,#504,.T.);
#504 = CIRCLE('',#505,2.6);
#505 = AXIS2_PLACEMENT_3D('',#506,#507,#508);
#506 = CARTESIAN_POINT('',(87.021324559544,-3.598819434085,53.));
#507 = DIRECTION('',(0.968960921462,0.24721394111,-0.));
#508 = DIRECTION('',(-0.24721394111,0.968960921462,0.));
#509 = ORIENTED_EDGE('',*,*,#495,.F.);
#510 = ORIENTED_EDGE('',*,*,#361,.F.);
#511 = CYLINDRICAL_SURFACE('',#512,2.6);
#512 = AXIS2_PLACEMENT_3D('',#513,#514,#515);
#513 = CARTESIAN_POINT('',(101.55573838147,0.109389682564,53.));
#514 = DIRECTION('',(0.968960921462,0.24721394111,0.));
#515 = DIRECTION('',(-0.24721394111,0.968960921462,0.));
#516 = ADVANCED_FACE('',(#517),#536,.F.);
#517 = FACE_BOUND('',#518,.F.);
#518 = EDGE_LOOP('',(#519,#527,#534,#535));
#519 = ORIENTED_EDGE('',*,*,#520,.T.);
#520 = EDGE_CURVE('',#373,#521,#523,.T.);
#521 = VERTEX_POINT('',#522);
#522 = CARTESIAN_POINT('',(77.72608037381,32.834111212894,53.));
#523 = LINE('',#524,#525);
#524 = CARTESIAN_POINT('',(92.260494195743,36.542320329543,53.));
#525 = VECTOR('',#526,1.);
#526 = DIRECTION('',(-0.968960921462,-0.24721394111,-0.));
#527 = ORIENTED_EDGE('',*,*,#528,.T.);
#528 = EDGE_CURVE('',#521,#521,#529,.T.);
#529 = CIRCLE('',#530,2.6);
#530 = AXIS2_PLACEMENT_3D('',#531,#532,#533);
#531 = CARTESIAN_POINT('',(78.368836620696,30.314812817092,53.));
#532 = DIRECTION('',(0.968960921462,0.24721394111,-0.));
#533 = DIRECTION('',(-0.24721394111,0.968960921462,0.));
#534 = ORIENTED_EDGE('',*,*,#520,.F.);
#535 = ORIENTED_EDGE('',*,*,#372,.F.);
#536 = CYLINDRICAL_SURFACE('',#537,2.6);
#537 = AXIS2_PLACEMENT_3D('',#538,#539,#540);
#538 = CARTESIAN_POINT('',(92.903250442629,34.023021933741,53.));
#539 = DIRECTION('',(0.968960921462,0.24721394111,0.));
#540 = DIRECTION('',(-0.24721394111,0.968960921462,0.));
#541 = ADVANCED_FACE('',(#542),#561,.F.);
#542 = FACE_BOUND('',#543,.F.);
#543 = EDGE_LOOP('',(#544,#552,#559,#560));
#544 = ORIENTED_EDGE('',*,*,#545,.T.);
#545 = EDGE_CURVE('',#384,#546,#548,.T.);
#546 = VERTEX_POINT('',#547);
#547 = CARTESIAN_POINT('',(95.031056251506,-34.99315328946,7.));
#548 = LINE('',#549,#550);
#549 = CARTESIAN_POINT('',(109.56547007343,-31.28494417281,7.));
#550 = VECTOR('',#551,1.);
#551 = DIRECTION('',(-0.968960921462,-0.24721394111,-0.));
#552 = ORIENTED_EDGE('',*,*,#553,.T.);
#553 = EDGE_CURVE('',#546,#546,#554,.T.);
#554 = CIRCLE('',#555,2.6);
#555 = AXIS2_PLACEMENT_3D('',#556,#557,#558);
#556 = CARTESIAN_POINT('',(95.673812498392,-37.51245168526,7.));
#557 = DIRECTION('',(0.968960921462,0.24721394111,-0.));
#558 = DIRECTION('',(-0.24721394111,0.968960921462,0.));
#559 = ORIENTED_EDGE('',*,*,#545,.F.);
#560 = ORIENTED_EDGE('',*,*,#383,.F.);
#561 = CYLINDRICAL_SURFACE('',#562,2.6);
#562 = AXIS2_PLACEMENT_3D('',#563,#564,#565);
#563 = CARTESIAN_POINT('',(110.20822632032,-33.80424256861,7.));
#564 = DIRECTION('',(0.968960921462,0.24721394111,0.));
#565 = DIRECTION('',(-0.24721394111,0.968960921462,0.));
#566 = ADVANCED_FACE('',(#567),#586,.F.);
#567 = FACE_BOUND('',#568,.F.);
#568 = EDGE_LOOP('',(#569,#577,#584,#585));
#569 = ORIENTED_EDGE('',*,*,#570,.T.);
#570 = EDGE_CURVE('',#395,#571,#573,.T.);
#571 = VERTEX_POINT('',#572);
#572 = CARTESIAN_POINT('',(86.378568312658,-1.079521038284,7.));
#573 = LINE('',#574,#575);
#574 = CARTESIAN_POINT('',(100.91298213459,2.628688078366,7.));
#575 = VECTOR('',#576,1.);
#576 = DIRECTION('',(-0.968960921462,-0.24721394111,-0.));
#577 = ORIENTED_EDGE('',*,*,#578,.T.);
#578 = EDGE_CURVE('',#571,#571,#579,.T.);
#579 = CIRCLE('',#580,2.6);
#580 = AXIS2_PLACEMENT_3D('',#581,#582,#583);
#581 = CARTESIAN_POINT('',(87.021324559544,-3.598819434085,7.));
#582 = DIRECTION('',(0.968960921462,0.24721394111,-0.));
#583 = DIRECTION('',(-0.24721394111,0.968960921462,0.));
#584 = ORIENTED_EDGE('',*,*,#570,.F.);
#585 = ORIENTED_EDGE('',*,*,#394,.F.);
#586 = CYLINDRICAL_SURFACE('',#587,2.6);
#587 = AXIS2_PLACEMENT_3D('',#588,#589,#590);
#588 = CARTESIAN_POINT('',(101.55573838147,0.109389682564,7.));
#589 = DIRECTION('',(0.968960921462,0.24721394111,0.));
#590 = DIRECTION('',(-0.24721394111,0.968960921462,0.));
#591 = ADVANCED_FACE('',(#592),#611,.F.);
#592 = FACE_BOUND('',#593,.F.);
#593 = EDGE_LOOP('',(#594,#602,#609,#610));
#594 = ORIENTED_EDGE('',*,*,#595,.T.);
#595 = EDGE_CURVE('',#406,#596,#598,.T.);
#596 = VERTEX_POINT('',#597);
#597 = CARTESIAN_POINT('',(77.72608037381,32.834111212894,7.));
#598 = LINE('',#599,#600);
#599 = CARTESIAN_POINT('',(92.260494195743,36.542320329543,7.));
#600 = VECTOR('',#601,1.);
#601 = DIRECTION('',(-0.968960921462,-0.24721394111,-0.));
#602 = ORIENTED_EDGE('',*,*,#603,.T.);
#603 = EDGE_CURVE('',#596,#596,#604,.T.);
#604 = CIRCLE('',#605,2.6);
#605 = AXIS2_PLACEMENT_3D('',#606,#607,#608);
#606 = CARTESIAN_POINT('',(78.368836620696,30.314812817092,7.));
#607 = DIRECTION('',(0.968960921462,0.24721394111,-0.));
#608 = DIRECTION('',(-0.24721394111,0.968960921462,0.));
#609 = ORIENTED_EDGE('',*,*,#595,.F.);
#610 = ORIENTED_EDGE('',*,*,#405,.F.);
#611 = CYLINDRICAL_SURFACE('',#612,2.6);
#612 = AXIS2_PLACEMENT_3D('',#613,#614,#615);
#613 = CARTESIAN_POINT('',(92.903250442629,34.023021933741,7.));
#614 = DIRECTION('',(0.968960921462,0.24721394111,0.));
#615 = DIRECTION('',(-0.24721394111,0.968960921462,0.));
#616 = ADVANCED_FACE('',(#617),#620,.T.);
#617 = FACE_BOUND('',#618,.T.);
#618 = EDGE_LOOP('',(#619));
#619 = ORIENTED_EDGE('',*,*,#478,.T.);
#620 = PLANE('',#621);
#621 = AXIS2_PLACEMENT_3D('',#622,#623,#624);
#622 = CARTESIAN_POINT('',(87.021324559544,-3.598819434085,30.));
#623 = DIRECTION('',(0.968960921462,0.24721394111,0.));
#624 = DIRECTION('',(-0.24721394111,0.968960921462,0.));
#625 = ADVANCED_FACE('',(#626),#629,.T.);
#626 = FACE_BOUND('',#627,.T.);
#627 = EDGE_LOOP('',(#628));
#628 = ORIENTED_EDGE('',*,*,#503,.T.);
#629 = PLANE('',#630);
#630 = AXIS2_PLACEMENT_3D('',#631,#632,#633);
#631 = CARTESIAN_POINT('',(87.021324559544,-3.598819434085,30.));
#632 = DIRECTION('',(0.968960921462,0.24721394111,0.));
#633 = DIRECTION('',(-0.24721394111,0.968960921462,0.));
#634 = ADVANCED_FACE('',(#635),#638,.T.);
#635 = FACE_BOUND('',#636,.T.);
#636 = EDGE_LOOP('',(#637));
#637 = ORIENTED_EDGE('',*,*,#528,.T.);
#638 = PLANE('',#639);
#639 = AXIS2_PLACEMENT_3D('',#640,#641,#642);
#640 = CARTESIAN_POINT('',(87.021324559544,-3.598819434085,30.));
#641 = DIRECTION('',(0.968960921462,0.24721394111,0.));
#642 = DIRECTION('',(-0.24721394111,0.968960921462,0.));
#643 = ADVANCED_FACE('',(#644),#647,.T.);
#644 = FACE_BOUND('',#645,.T.);
#645 = EDGE_LOOP('',(#646));
#646 = ORIENTED_EDGE('',*,*,#553,.T.);
#647 = PLANE('',#648);
#648 = AXIS2_PLACEMENT_3D('',#649,#650,#651);
#649 = CARTESIAN_POINT('',(87.021324559544,-3.598819434085,30.));
#650 = DIRECTION('',(0.968960921462,0.24721394111,0.));
#651 = DIRECTION('',(-0.24721394111,0.968960921462,0.));
#652 = ADVANCED_FACE('',(#653),#656,.T.);
#653 = FACE_BOUND('',#654,.T.);
#654 = EDGE_LOOP('',(#655));
#655 = ORIENTED_EDGE('',*,*,#578,.T.);
#656 = PLANE('',#657);
#657 = AXIS2_PLACEMENT_3D('',#658,#659,#660);
#658 = CARTESIAN_POINT('',(87.021324559544,-3.598819434085,30.));
#659 = DIRECTION('',(0.968960921462,0.24721394111,0.));
#660 = DIRECTION('',(-0.24721394111,0.968960921462,0.));
#661 = ADVANCED_FACE('',(#662),#665,.T.);
#662 = FACE_BOUND('',#663,.T.);
#663 = EDGE_LOOP('',(#664));
#664 = ORIENTED_EDGE('',*,*,#603,.T.);
#665 = PLANE('',#666);
#666 = AXIS2_PLACEMENT_3D('',#667,#668,#669);
#667 = CARTESIAN_POINT('',(87.021324559544,-3.598819434085,30.));
#668 = DIRECTION('',(0.968960921462,0.24721394111,0.));
#669 = DIRECTION('',(-0.24721394111,0.968960921462,0.));
#670 = ( GEOMETRIC_REPRESENTATION_CONTEXT(3) 
GLOBAL_UNCERTAINTY_ASSIGNED_CONTEXT((#674)) GLOBAL_UNIT_ASSIGNED_CONTEXT
((#671,#672,#673)) REPRESENTATION_CONTEXT('Context #1',
  '3D Context with UNIT and UNCERTAINTY') );
#671 = ( LENGTH_UNIT() NAMED_UNIT(*) SI_UNIT(.MILLI.,.METRE.) );
#672 = ( NAMED_UNIT(*) PLANE_ANGLE_UNIT() SI_UNIT($,.RADIAN.) );
#673 = ( NAMED_UNIT(*) SI_UNIT($,.STERADIAN.) SOLID_ANGLE_UNIT() );
#674 = UNCERTAINTY_MEASURE_WITH_UNIT(LENGTH_MEASURE(5.E-06),#671,
  'distance_accuracy_value','confusion accuracy');
#675 = PRODUCT_RELATED_PRODUCT_CATEGORY('part',$,(#7));
#676 = MECHANICAL_DESIGN_GEOMETRIC_PRESENTATION_REPRESENTATION('',(#677)
  ,#670);
#677 = STYLED_ITEM('color',(#678),#15);
#678 = PRESENTATION_STYLE_ASSIGNMENT((#679,#685));
#679 = SURFACE_STYLE_USAGE(.BOTH.,#680);
#680 = SURFACE_SIDE_STYLE('',(#681));
#681 = SURFACE_STYLE_FILL_AREA(#682);
#682 = FILL_AREA_STYLE('',(#683));
#683 = FILL_AREA_STYLE_COLOUR('',#684);
#684 = COLOUR_RGB('',0.678431390124,0.709803936702,0.741176476869);
#685 = CURVE_STYLE('',#686,POSITIVE_LENGTH_MEASURE(0.1),#687);
#686 = DRAUGHTING_PRE_DEFINED_CURVE_FONT('continuous');
#687 = COLOUR_RGB('',9.803921802644E-02,9.803921802644E-02,
  9.803921802644E-02);
ENDSEC;
END-ISO-10303-21;
