999
FreeCAD v0.21 33771 (Git)
  0
SECTION
  2
HEADER
  9
$ACADVER
  1
AC1014
  9
$ACADMAINTVER
 70
     9
  9
$DWGCODEPAGE
  3
ANSI_1252
  9
$TEXTSTYLE
  7
STANDARD
  9
$DIMSTYLE
  2
STANDARD
  9
$DIMTXSTY
  7
STANDARD
  9
$CMLSTYLE
  2
STANDARD
  9
$LUNITS
 70
2
  9
$INSUNITS
 70
4
  9
$PEXTMAX
 10
50
 20
50
 30
50
  9
$PEXTMIN
 10
0
 20
0
 30
0
  9
$HANDSEED
  5
FFFF
  0
ENDSEC
  0
SECTION
  2
CLASSES
  0
CLASS
  1
ACDBDICTIONARYWDFLT
  2
AcDbDictionaryWithDefault
  3
ObjectDBX Classes
 90
        0
280
     0
281
     0
  0
CLASS
  1
XRECORD
  2
AcDbXrecord
  3
ObjectDBX Classes
 90
        0
280
     0
281
     0
  0
CLASS
  1
LWPOLYLINE
  2
AcDbPolyline
  3
ObjectDBX Classes
 90
        0
280
     0
281
     1
  0
ENDSEC
  0
SECTION
  2
TABLES
  0
TABLE
  2
VPORT
  5
20
330
0
100
AcDbSymbolTable
 70
     1
  0
VPORT
  5
21
330
20
100
AcDbSymbolTableRecord
100
AcDbViewportTableRecord
  2
*ACTIVE
 70
     0
  0
ENDTAB
  0
TABLE
  2
LTYPE
  5
22
330
0
100
AcDbSymbolTable
 70
     1
  0
LTYPE
  5
23
330
21
100
AcDbSymbolTableRecord
100
AcDbLinetypeTableRecord
  2
BYBLOCK
 70
     0
  3

 72
    65
 73
     0
 40
0.0
  0
LTYPE
  5
24
330
21
100
AcDbSymbolTableRecord
100
AcDbLinetypeTableRecord
  2
BYLAYER
 70
     0
  3

 72
    65
 73
     0
 40
0.0
  0
LTYPE
  5
25
330
21
100
AcDbSymbolTableRecord
100
AcDbLinetypeTableRecord
  2
CONTINUOUS
 70
     0
  3
Solid line
 72
    65
 73
     0
 40
0.0
  0
ENDTAB
  0
TABLE
  2
LAYER
  5
A56
330
0
100
AcDbSymbolTable
 70
3
  0
LAYER
  5
A57
330
A56
100
AcDbSymbolTableRecord
100
AcDbLayerTableRecord
  2
0
 70
   0
 62
   7
  6
CONTINUOUS
  0
LAYER
  5
A58
330
A56
100
AcDbSymbolTableRecord
100
AcDbLayerTableRecord
  2
none
 70
    0
 62
    7
  6
CONTINUOUS
  0
LAYER
  5
A59
330
A56
100
AcDbSymbolTableRecord
100
AcDbLayerTableRecord
  2
Body
 70
    0
 62
    7
  6
CONTINUOUS
  0
ENDTAB
  0
TABLE
  2
STYLE
  5
70
330
0
100
AcDbSymbolTable
 70
     2
  0
STYLE
  5
71
330
70
100
AcDbSymbolTableRecord
100
AcDbTextStyleTableRecord
  2
STANDARD
 70
     0
 40
0.0
 41
1.0
 50
0.0
 71
     0
 42
2.5
  3
arial.ttf
  4

  0
STYLE
  5
72
330
70
100
AcDbSymbolTableRecord
100
AcDbTextStyleTableRecord
  2
ANNOTATIVE
 70
     0
 40
0.0
 41
1.0
 50
0.0
 71
     0
 42
2.5
  3
arial.ttf
  4

  0
ENDTAB
  0
TABLE
  2
VIEW
  5
73
330
0
100
AcDbSymbolTable
 70
     0
  0
ENDTAB
  0
TABLE
  2
UCS
  5
74
330
0
100
AcDbSymbolTable
 70
     0
  0
ENDTAB
  0
TABLE
  2
APPID
  5
75
330
0
100
AcDbSymbolTable
 70
     2
  0
APPID
  5
76
330
75
100
AcDbSymbolTableRecord
100
AcDbRegAppTableRecord
  2
ACAD
 70
     0
  0
APPID
  5
77
330
75
100
AcDbSymbolTableRecord
100
AcDbRegAppTableRecord
  2
ACADANNOTATIVE
 70
     0
  0
ENDTAB
  0
TABLE
  2
DIMSTYLE
  5
78
330
0
100
AcDbSymbolTable
 70
     2
  0
DIMSTYLE
105
79
330
78
100
AcDbSymbolTableRecord
100
AcDbDimStyleTableRecord
  2
STANDARD
 70
     0
  3

  4

  5

  6

  7

 40
0.0
 41
2.5
 42
0.625
 43
3.75
 44
1.25
 45
0.0
 46
0.0
 47
0.0
 48
0.0
140
2.5
141
2.5
142
0.0
143
0.03937007874016
144
1.0
145
0.0
146
1.0
147
0.625
 71
     0
 72
     0
 73
     0
 74
     0
 75
     0
 76
     0
 77
     1
 78
     8
170
     0
171
     3
172
     1
173
     0
174
     0
175
     0
176
     0
177
     0
178
     0
270
     2
271
     2
272
     2
273
     2
274
     3
340
71
275
     0
280
     0
281
     0
282
     0
283
     0
284
     8
285
     0
286
     0
287
     3
288
     0
  0
ENDTAB
  0
TABLE
  2
BLOCK_RECORD
  5
A01
330
0
100
AcDbSymbolTable
  70
5
  0
BLOCK_RECORD
  5
A02
330
A01
100
AcDbSymbolTableRecord
100
AcDbBlockTableRecord
  2
*MODEL_SPACE
  0
BLOCK_RECORD
  5
A03
330
A01
100
AcDbSymbolTableRecord
100
AcDbBlockTableRecord
  2
*PAPER_SPACE
  0
ENDTAB
  0
ENDSEC
  0
SECTION
  2
BLOCKS
  0
BLOCK
  5
A04
330
A02
100
AcDbEntity
  8
0
100
AcDbBlockBegin
  2
*MODEL_SPACE
 70
   0
 10
0
 20
0
 30
0
  3
*MODEL_SPACE
  1
 
  0
ENDBLK
  5
A05
330
A02
100
AcDbEntity
  8
0
100
AcDbBlockEnd
  0
BLOCK
  5
A06
330
A03
100
AcDbEntity
 67
1
  8
0
100
AcDbBlockBegin
  2
*PAPER_SPACE
 70
   0
 10
0
 20
0
 30
0
  3
*PAPER_SPACE
  1
 
  0
ENDBLK
  5
A07
330
A03
100
AcDbEntity
 67
    1
  8
0
100
AcDbBlockEnd
  0
ENDSEC
  0
SECTION
  2
ENTITIES
  0
LINE
  5
A08
330
A02
100
AcDbEntity
  8
Body
100
AcDbLine
 10
25
 20
0
 30
0
 11
25
 21
0
 31
4
  0
LINE
  5
A09
330
A02
100
AcDbEntity
  8
Body
100
AcDbLine
 10
25
 20
0
 30
0
 11
25
 21
0
 31
4
  0
CIRCLE
  5
A0A
330
A02
100
AcDbEntity
  8
Body
100
AcDbCircle
 10
0
 20
0
 40
25
  0
CIRCLE
  5
A0B
330
A02
100
AcDbEntity
  8
Body
100
AcDbCircle
 10
0
 20
0
 40
25
  0
CIRCLE
  5
A0C
330
A02
100
AcDbEntity
  8
Body
100
AcDbCircle
 10
0
 20
0
 40
25
  0
ARC
  5
A0D
330
A02
100
AcDbEntity
  8
Body
100
AcDbCircle
 10
-12.5
 20
0.178417
 30
0
 40
2.50636
100
AcDbArc
 50
-4.0821
 51
-175.918
  0
SPLINE
  5
A0E
330
A02
100
AcDbEntity
  8
Body
100
AcDbSpline
210
0
220
0
230
1
 70
8
 71
3
 72
29
 73
25
 74
0
 40
0
 40
0
 40
0
 40
0
 40
0.374883
 40
0.374883
 40
0.374883
 40
0.749766
 40
0.749766
 40
0.749766
 40
1.12465
 40
1.12465
 40
1.12465
 40
1.49953
 40
1.49953
 40
1.49953
 40
1.87441
 40
1.87441
 40
1.87441
 40
2.2493
 40
2.2493
 40
2.2493
 40
2.62418
 40
2.62418
 40
2.62418
 40
2.99906
 40
2.99906
 40
2.99906
 40
2.99906
 10
-10
 20
0
 30
0
 10
-10.3005
 20
-1.1777
 30
0
 10
-10.3899
 20
-2.46372
 30
0
 10
-10.2263
 20
-3.77268
 30
0
 10
-10.064
 20
-5.08111
 30
0
 10
-9.6482
 20
-6.41145
 30
0
 10
-8.97279
 20
-7.66349
 30
0
 10
-8.29881
 20
-8.91552
 30
0
 10
-7.36504
 20
-10.088
 30
0
 10
-6.20549
 20
-11.0807
 30
0
 10
-5.04732
 20
-12.0739
 30
0
 10
-3.6637
 20
-12.8861
 30
0
 10
-2.12751
 20
-13.4326
 30
0
 10
-0.59243
 20
-13.9802
 30
0
 10
1.09442
 20
-14.2611
 30
0
 10
2.82881
 20
-14.2214
 30
0
 10
4.56254
 20
-14.1832
 30
0
 10
6.34265
 20
-13.8236
 30
0
 10
8.04648
 20
-13.1307
 30
0
 10
9.75026
 20
-12.4394
 30
0
 10
11.3764
 20
-11.4144
 30
0
 10
12.8007
 20
-10.0912
 30
0
 10
14.2255
 20
-8.76971
 30
0
 10
15.4472
 20
-7.15031
 30
0
 10
16.3582
 20
-5.31509
 30
0
  0
SPLINE
  5
A0F
330
A02
100
AcDbEntity
  8
Body
100
AcDbSpline
210
0
220
0
230
1
 70
8
 71
3
 72
29
 73
25
 74
0
 40
0
 40
0
 40
0
 40
0
 40
0.374883
 40
0.374883
 40
0.374883
 40
0.749766
 40
0.749766
 40
0.749766
 40
1.12465
 40
1.12465
 40
1.12465
 40
1.49953
 40
1.49953
 40
1.49953
 40
1.87441
 40
1.87441
 40
1.87441
 40
2.2493
 40
2.2493
 40
2.2493
 40
2.62418
 40
2.62418
 40
2.62418
 40
2.99906
 40
2.99906
 40
2.99906
 40
2.99906
 10
-15
 20
8.88178e-15
 30
0
 10
-15.3008
 20
-1.76679
 30
0
 10
-15.2849
 20
-3.64171
 30
0
 10
-14.9172
 20
-5.50326
 30
0
 10
-14.5513
 20
-7.36444
 30
0
 10
-13.833
 20
-9.2109
 30
0
 10
-12.7748
 20
-10.9107
 30
0
 10
-11.7184
 20
-12.6109
 30
0
 10
-10.3222
 20
-14.1629
 30
0
 10
-8.6486
 20
-15.4432
 30
0
 10
-6.97656
 20
-16.7244
 30
0
 10
-5.02774
 20
-17.7326
 30
0
 10
-2.90968
 20
-18.371
 30
0
 10
-0.792807
 20
-19.011
 30
0
 10
1.49216
 20
-19.2802
 30
0
 10
3.80426
 20
-19.1253
 30
0
 10
6.1158
 20
-18.9724
 30
0
 10
8.45298
 20
-18.3948
 30
0
 10
10.659
 20
-17.3939
 30
0
 10
12.8651
 20
-16.395
 30
0
 10
14.9385
 20
-14.9726
 30
0
 10
16.7273
 20
-13.1867
 30
0
 10
18.517
 20
-11.4027
 30
0
 10
20.0206
 20
-9.25572
 30
0
 10
21.1135
 20
-6.86018
 30
0
  0
ARC
  5
A10
330
A02
100
AcDbEntity
  8
Body
100
AcDbCircle
 10
18.7499
 20
-6.0442
 30
0
 40
2.50042
100
AcDbArc
 50
-19.0465
 51
163.046
  0
ARC
  5
A11
330
A02
100
AcDbEntity
  8
Body
100
AcDbCircle
 10
12.5
 20
-0.178417
 30
0
 40
2.50636
100
AcDbArc
 50
175.918
 51
4.0821
  0
SPLINE
  5
A12
330
A02
100
AcDbEntity
  8
Body
100
AcDbSpline
210
0
220
0
230
1
 70
8
 71
3
 72
29
 73
25
 74
0
 40
0
 40
0
 40
0
 40
0
 40
0.374883
 40
0.374883
 40
0.374883
 40
0.749766
 40
0.749766
 40
0.749766
 40
1.12465
 40
1.12465
 40
1.12465
 40
1.49953
 40
1.49953
 40
1.49953
 40
1.87441
 40
1.87441
 40
1.87441
 40
2.2493
 40
2.2493
 40
2.2493
 40
2.62418
 40
2.62418
 40
2.62418
 40
2.99906
 40
2.99906
 40
2.99906
 40
2.99906
 10
15
 20
-8.88178e-15
 30
0
 10
15.3008
 20
1.76679
 30
0
 10
15.2849
 20
3.64171
 30
0
 10
14.9172
 20
5.50326
 30
0
 10
14.5513
 20
7.36444
 30
0
 10
13.833
 20
9.2109
 30
0
 10
12.7748
 20
10.9107
 30
0
 10
11.7184
 20
12.6109
 30
0
 10
10.3222
 20
14.1629
 30
0
 10
8.6486
 20
15.4432
 30
0
 10
6.97656
 20
16.7244
 30
0
 10
5.02774
 20
17.7326
 30
0
 10
2.90968
 20
18.371
 30
0
 10
0.792807
 20
19.011
 30
0
 10
-1.49216
 20
19.2802
 30
0
 10
-3.80426
 20
19.1253
 30
0
 10
-6.1158
 20
18.9724
 30
0
 10
-8.45298
 20
18.3948
 30
0
 10
-10.659
 20
17.3939
 30
0
 10
-12.8651
 20
16.395
 30
0
 10
-14.9385
 20
14.9726
 30
0
 10
-16.7273
 20
13.1867
 30
0
 10
-18.517
 20
11.4027
 30
0
 10
-20.0206
 20
9.25572
 30
0
 10
-21.1135
 20
6.86018
 30
0
  0
ARC
  5
A13
330
A02
100
AcDbEntity
  8
Body
100
AcDbCircle
 10
-18.7499
 20
6.0442
 30
0
 40
2.50042
100
AcDbArc
 50
160.954
 51
-16.9535
  0
SPLINE
  5
A14
330
A02
100
AcDbEntity
  8
Body
100
AcDbSpline
210
0
220
0
230
1
 70
8
 71
3
 72
29
 73
25
 74
0
 40
0
 40
0
 40
0
 40
0
 40
0.374883
 40
0.374883
 40
0.374883
 40
0.749766
 40
0.749766
 40
0.749766
 40
1.12465
 40
1.12465
 40
1.12465
 40
1.49953
 40
1.49953
 40
1.49953
 40
1.87441
 40
1.87441
 40
1.87441
 40
2.2493
 40
2.2493
 40
2.2493
 40
2.62418
 40
2.62418
 40
2.62418
 40
2.99906
 40
2.99906
 40
2.99906
 40
2.99906
 10
10
 20
-2.22045e-16
 30
0
 10
10.3005
 20
1.1777
 30
0
 10
10.3899
 20
2.46372
 30
0
 10
10.2263
 20
3.77268
 30
0
 10
10.064
 20
5.08111
 30
0
 10
9.6482
 20
6.41145
 30
0
 10
8.97279
 20
7.66349
 30
0
 10
8.29881
 20
8.91552
 30
0
 10
7.36504
 20
10.088
 30
0
 10
6.20549
 20
11.0807
 30
0
 10
5.04732
 20
12.0739
 30
0
 10
3.6637
 20
12.8861
 30
0
 10
2.12751
 20
13.4326
 30
0
 10
0.59243
 20
13.9802
 30
0
 10
-1.09442
 20
14.2611
 30
0
 10
-2.82881
 20
14.2214
 30
0
 10
-4.56254
 20
14.1832
 30
0
 10
-6.34265
 20
13.8236
 30
0
 10
-8.04648
 20
13.1307
 30
0
 10
-9.75026
 20
12.4394
 30
0
 10
-11.3764
 20
11.4144
 30
0
 10
-12.8007
 20
10.0912
 30
0
 10
-14.2255
 20
8.76971
 30
0
 10
-15.4472
 20
7.15031
 30
0
 10
-16.3582
 20
5.31509
 30
0
  0
LINE
  5
A15
330
A02
100
AcDbEntity
  8
Body
100
AcDbLine
 10
-4
 20
-4
 30
0
 11
-4
 21
4
 31
0
  0
LINE
  5
A16
330
A02
100
AcDbEntity
  8
Body
100
AcDbLine
 10
4
 20
-4
 30
0
 11
-4
 21
-4
 31
0
  0
LINE
  5
A17
330
A02
100
AcDbEntity
  8
Body
100
AcDbLine
 10
4
 20
4
 30
0
 11
4
 21
-4
 31
0
  0
LINE
  5
A18
330
A02
100
AcDbEntity
  8
Body
100
AcDbLine
 10
-4
 20
4
 30
0
 11
4
 21
4
 31
0
  0
CIRCLE
  5
A19
330
A02
100
AcDbEntity
  8
Body
100
AcDbCircle
 10
0
 20
0
 40
25
  0
SPLINE
  5
A1A
330
A02
100
AcDbEntity
  8
Body
100
AcDbSpline
210
0
220
0
230
1
 70
8
 71
3
 72
23
 73
19
 74
0
 40
0
 40
0
 40
0
 40
0
 40
0.240735
 40
0.240735
 40
0.240735
 40
0.42715
 40
0.42715
 40
0.42715
 40
0.574489
 40
0.574489
 40
0.574489
 40
0.693838
 40
0.693838
 40
0.693838
 40
0.873229
 40
0.873229
 40
0.873229
 40
1
 40
1
 40
1
 40
1
 10
16.3582
 20
-5.31509
 30
4
 10
14.9646
 20
-8.13186
 30
4
 10
12.7613
 20
-10.5538
 30
4
 10
10.0458
 20
-12.1433
 30
4
 10
7.94905
 20
-13.3774
 30
4
 10
5.55291
 20
-14.1095
 30
4
 10
3.12052
 20
-14.2118
 30
4
 10
1.19989
 20
-14.2955
 30
4
 10
-0.739897
 20
-13.9862
 30
4
 10
-2.52937
 20
-13.2821
 30
4
 10
-3.97852
 20
-12.7135
 30
4
 10
-5.32767
 20
-11.8866
 30
4
 10
-6.47932
 20
-10.839
 30
4
 10
-8.21226
 20
-9.26975
 30
4
 10
-9.49017
 20
-7.18622
 30
4
 10
-10.0228
 20
-4.90622
 30
4
 10
-10.4021
 20
-3.29921
 30
4
 10
-10.4087
 20
-1.60044
 30
4
 10
-10
 20
-8.88178e-16
 30
4
  0
ARC
  5
A1B
330
A02
100
AcDbEntity
  8
Body
100
AcDbCircle
 10
18.7499
 20
-6.0442
 30
4
 40
2.50042
100
AcDbArc
 50
-19.0465
 51
163.046
  0
ARC
  5
A1C
330
A02
100
AcDbEntity
  8
Body
100
AcDbCircle
 10
-12.5
 20
0.178417
 30
4
 40
2.50636
100
AcDbArc
 50
-4.0821
 51
-175.918
  0
SPLINE
  5
A1D
330
A02
100
AcDbEntity
  8
Body
100
AcDbSpline
210
0
220
0
230
1
 70
8
 71
3
 72
26
 73
22
 74
0
 40
0
 40
0
 40
0
 40
0
 40
0.203487
 40
0.203487
 40
0.203487
 40
0.374017
 40
0.374017
 40
0.374017
 40
0.519198
 40
0.519198
 40
0.519198
 40
0.643511
 40
0.643511
 40
0.643511
 40
0.750808
 40
0.750808
 40
0.750808
 40
0.844409
 40
0.844409
 40
0.844409
 40
1
 40
1
 40
1
 40
1
 10
21.1135
 20
-6.86018
 30
4
 10
19.621
 20
-10.1383
 30
4
 10
17.3035
 20
-13.0435
 30
4
 10
14.406
 20
-15.1871
 30
4
 10
11.9829
 20
-16.9866
 30
4
 10
9.15804
 20
-18.2484
 30
4
 10
6.19248
 20
-18.8168
 30
4
 10
3.6698
 20
-19.3037
 30
4
 10
1.04853
 20
-19.288
 30
4
 10
-1.46338
 20
-18.7446
 30
4
 10
-3.61376
 20
-18.2815
 30
4
 10
-5.68215
 20
-17.4323
 30
4
 10
-7.52738
 20
-16.2342
 30
4
 10
-9.12022
 20
-15.2014
 30
4
 10
-10.546
 20
-13.9096
 30
4
 10
-11.7189
 20
-12.4167
 30
4
 10
-12.7426
 20
-11.1153
 30
4
 10
-13.5735
 20
-9.66155
 30
4
 10
-14.165
 20
-8.11498
 30
4
 10
-15.1518
 20
-5.54672
 30
4
 10
-15.4639
 20
-2.7145
 30
4
 10
-15
 20
8.88178e-15
 30
4
  0
LINE
  5
A1E
330
A02
100
AcDbEntity
  8
Body
100
AcDbLine
 10
4
 20
4
 30
4
 11
-4
 21
4
 31
4
  0
LINE
  5
A1F
330
A02
100
AcDbEntity
  8
Body
100
AcDbLine
 10
-4
 20
4
 30
4
 11
-4
 21
-4
 31
4
  0
LINE
  5
A20
330
A02
100
AcDbEntity
  8
Body
100
AcDbLine
 10
-4
 20
-4
 30
4
 11
4
 21
-4
 31
4
  0
LINE
  5
A21
330
A02
100
AcDbEntity
  8
Body
100
AcDbLine
 10
4
 20
-4
 30
4
 11
4
 21
4
 31
4
  0
SPLINE
  5
A22
330
A02
100
AcDbEntity
  8
Body
100
AcDbSpline
210
0
220
0
230
1
 70
8
 71
3
 72
23
 73
19
 74
0
 40
0
 40
0
 40
0
 40
0
 40
0.240735
 40
0.240735
 40
0.240735
 40
0.42715
 40
0.42715
 40
0.42715
 40
0.574489
 40
0.574489
 40
0.574489
 40
0.693838
 40
0.693838
 40
0.693838
 40
0.873229
 40
0.873229
 40
0.873229
 40
1
 40
1
 40
1
 40
1
 10
-16.3582
 20
5.31509
 30
4
 10
-14.9646
 20
8.13186
 30
4
 10
-12.7613
 20
10.5538
 30
4
 10
-10.0458
 20
12.1433
 30
4
 10
-7.94905
 20
13.3774
 30
4
 10
-5.55291
 20
14.1095
 30
4
 10
-3.12052
 20
14.2118
 30
4
 10
-1.19989
 20
14.2955
 30
4
 10
0.739897
 20
13.9862
 30
4
 10
2.52937
 20
13.2821
 30
4
 10
3.97852
 20
12.7135
 30
4
 10
5.32767
 20
11.8866
 30
4
 10
6.47932
 20
10.839
 30
4
 10
8.21226
 20
9.26975
 30
4
 10
9.49017
 20
7.18622
 30
4
 10
10.0228
 20
4.90622
 30
4
 10
10.4021
 20
3.29921
 30
4
 10
10.4087
 20
1.60044
 30
4
 10
10
 20
0
 30
4
  0
ARC
  5
A23
330
A02
100
AcDbEntity
  8
Body
100
AcDbCircle
 10
12.5
 20
-0.178417
 30
4
 40
2.50636
100
AcDbArc
 50
175.918
 51
4.0821
  0
SPLINE
  5
A24
330
A02
100
AcDbEntity
  8
Body
100
AcDbSpline
210
0
220
0
230
1
 70
8
 71
3
 72
26
 73
22
 74
0
 40
0
 40
0
 40
0
 40
0
 40
0.203487
 40
0.203487
 40
0.203487
 40
0.374017
 40
0.374017
 40
0.374017
 40
0.519198
 40
0.519198
 40
0.519198
 40
0.643511
 40
0.643511
 40
0.643511
 40
0.750808
 40
0.750808
 40
0.750808
 40
0.844409
 40
0.844409
 40
0.844409
 40
1
 40
1
 40
1
 40
1
 10
-21.1135
 20
6.86018
 30
4
 10
-19.621
 20
10.1383
 30
4
 10
-17.3035
 20
13.0435
 30
4
 10
-14.406
 20
15.1871
 30
4
 10
-11.9829
 20
16.9866
 30
4
 10
-9.15804
 20
18.2484
 30
4
 10
-6.19248
 20
18.8168
 30
4
 10
-3.6698
 20
19.3037
 30
4
 10
-1.04853
 20
19.288
 30
4
 10
1.46338
 20
18.7446
 30
4
 10
3.61376
 20
18.2815
 30
4
 10
5.68215
 20
17.4323
 30
4
 10
7.52738
 20
16.2342
 30
4
 10
9.12022
 20
15.2014
 30
4
 10
10.546
 20
13.9096
 30
4
 10
11.7189
 20
12.4167
 30
4
 10
12.7426
 20
11.1153
 30
4
 10
13.5735
 20
9.66155
 30
4
 10
14.165
 20
8.11498
 30
4
 10
15.1518
 20
5.54672
 30
4
 10
15.4639
 20
2.7145
 30
4
 10
15
 20
-8.88178e-15
 30
4
  0
ARC
  5
A25
330
A02
100
AcDbEntity
  8
Body
100
AcDbCircle
 10
-18.7499
 20
6.0442
 30
4
 40
2.50042
100
AcDbArc
 50
160.954
 51
-16.9535
  0
ARC
  5
A26
330
A02
100
AcDbEntity
  8
Body
100
AcDbCircle
 10
-12.5
 20
0.178417
 30
0
 40
2.50636
100
AcDbArc
 50
-4.0821
 51
-175.918
  0
LINE
  5
A27
330
A02
100
AcDbEntity
  8
Body
100
AcDbLine
 10
-15
 20
8.46545e-15
 30
0
 11
-15
 21
8.46545e-15
 31
4
  0
ARC
  5
A28
330
A02
100
AcDbEntity
  8
Body
100
AcDbCircle
 10
-12.5
 20
0.178417
 30
4
 40
2.50636
100
AcDbArc
 50
-4.0821
 51
-175.918
  0
LINE
  5
A29
330
A02
100
AcDbEntity
  8
Body
100
AcDbLine
 10
-10
 20
-2.22045e-16
 30
0
 11
-10
 21
-2.22045e-16
 31
4
  0
SPLINE
  5
A2A
330
A02
100
AcDbEntity
  8
Body
100
AcDbSpline
210
0
220
0
230
1
 70
8
 71
3
 72
29
 73
25
 74
0
 40
0
 40
0
 40
0
 40
0
 40
0.374883
 40
0.374883
 40
0.374883
 40
0.749766
 40
0.749766
 40
0.749766
 40
1.12465
 40
1.12465
 40
1.12465
 40
1.49953
 40
1.49953
 40
1.49953
 40
1.87441
 40
1.87441
 40
1.87441
 40
2.2493
 40
2.2493
 40
2.2493
 40
2.62418
 40
2.62418
 40
2.62418
 40
2.99906
 40
2.99906
 40
2.99906
 40
2.99906
 10
-10
 20
0
 30
0
 10
-10.3005
 20
-1.1777
 30
0
 10
-10.3899
 20
-2.46372
 30
0
 10
-10.2263
 20
-3.77268
 30
0
 10
-10.064
 20
-5.08111
 30
0
 10
-9.6482
 20
-6.41145
 30
0
 10
-8.97279
 20
-7.66349
 30
0
 10
-8.29881
 20
-8.91552
 30
0
 10
-7.36504
 20
-10.088
 30
0
 10
-6.20549
 20
-11.0807
 30
0
 10
-5.04732
 20
-12.0739
 30
0
 10
-3.6637
 20
-12.8861
 30
0
 10
-2.12751
 20
-13.4326
 30
0
 10
-0.59243
 20
-13.9802
 30
0
 10
1.09442
 20
-14.2611
 30
0
 10
2.82881
 20
-14.2214
 30
0
 10
4.56254
 20
-14.1832
 30
0
 10
6.34265
 20
-13.8236
 30
0
 10
8.04648
 20
-13.1307
 30
0
 10
9.75026
 20
-12.4394
 30
0
 10
11.3764
 20
-11.4144
 30
0
 10
12.8007
 20
-10.0912
 30
0
 10
14.2255
 20
-8.76971
 30
0
 10
15.4472
 20
-7.15031
 30
0
 10
16.3582
 20
-5.31509
 30
0
  0
LINE
  5
A2B
330
A02
100
AcDbEntity
  8
Body
100
AcDbLine
 10
16.3582
 20
-5.31509
 30
0
 11
16.3582
 21
-5.31509
 31
4
  0
SPLINE
  5
A2C
330
A02
100
AcDbEntity
  8
Body
100
AcDbSpline
210
0
220
0
230
1
 70
8
 71
3
 72
23
 73
19
 74
0
 40
0
 40
0
 40
0
 40
0
 40
0.240735
 40
0.240735
 40
0.240735
 40
0.42715
 40
0.42715
 40
0.42715
 40
0.574489
 40
0.574489
 40
0.574489
 40
0.693838
 40
0.693838
 40
0.693838
 40
0.873229
 40
0.873229
 40
0.873229
 40
1
 40
1
 40
1
 40
1
 10
16.3582
 20
-5.31509
 30
4
 10
14.9646
 20
-8.13186
 30
4
 10
12.7613
 20
-10.5538
 30
4
 10
10.0458
 20
-12.1433
 30
4
 10
7.94905
 20
-13.3774
 30
4
 10
5.55291
 20
-14.1095
 30
4
 10
3.12052
 20
-14.2118
 30
4
 10
1.19989
 20
-14.2955
 30
4
 10
-0.739897
 20
-13.9862
 30
4
 10
-2.52937
 20
-13.2821
 30
4
 10
-3.97852
 20
-12.7135
 30
4
 10
-5.32767
 20
-11.8866
 30
4
 10
-6.47932
 20
-10.839
 30
4
 10
-8.21226
 20
-9.26975
 30
4
 10
-9.49017
 20
-7.18622
 30
4
 10
-10.0228
 20
-4.90622
 30
4
 10
-10.4021
 20
-3.29921
 30
4
 10
-10.4087
 20
-1.60044
 30
4
 10
-10
 20
-8.88178e-16
 30
4
  0
LINE
  5
A2D
330
A02
100
AcDbEntity
  8
Body
100
AcDbLine
 10
-10
 20
-2.22045e-16
 30
0
 11
-10
 21
-2.22045e-16
 31
4
  0
SPLINE
  5
A2E
330
A02
100
AcDbEntity
  8
Body
100
AcDbSpline
210
0
220
0
230
1
 70
8
 71
3
 72
29
 73
25
 74
0
 40
0
 40
0
 40
0
 40
0
 40
0.374883
 40
0.374883
 40
0.374883
 40
0.749766
 40
0.749766
 40
0.749766
 40
1.12465
 40
1.12465
 40
1.12465
 40
1.49953
 40
1.49953
 40
1.49953
 40
1.87441
 40
1.87441
 40
1.87441
 40
2.2493
 40
2.2493
 40
2.2493
 40
2.62418
 40
2.62418
 40
2.62418
 40
2.99906
 40
2.99906
 40
2.99906
 40
2.99906
 10
-15
 20
8.88178e-15
 30
0
 10
-15.3008
 20
-1.76679
 30
0
 10
-15.2849
 20
-3.64171
 30
0
 10
-14.9172
 20
-5.50326
 30
0
 10
-14.5513
 20
-7.36444
 30
0
 10
-13.833
 20
-9.2109
 30
0
 10
-12.7748
 20
-10.9107
 30
0
 10
-11.7184
 20
-12.6109
 30
0
 10
-10.3222
 20
-14.1629
 30
0
 10
-8.6486
 20
-15.4432
 30
0
 10
-6.97656
 20
-16.7244
 30
0
 10
-5.02774
 20
-17.7326
 30
0
 10
-2.90968
 20
-18.371
 30
0
 10
-0.792807
 20
-19.011
 30
0
 10
1.49216
 20
-19.2802
 30
0
 10
3.80426
 20
-19.1253
 30
0
 10
6.1158
 20
-18.9724
 30
0
 10
8.45298
 20
-18.3948
 30
0
 10
10.659
 20
-17.3939
 30
0
 10
12.8651
 20
-16.395
 30
0
 10
14.9385
 20
-14.9726
 30
0
 10
16.7273
 20
-13.1867
 30
0
 10
18.517
 20
-11.4027
 30
0
 10
20.0206
 20
-9.25572
 30
0
 10
21.1135
 20
-6.86018
 30
0
  0
LINE
  5
A2F
330
A02
100
AcDbEntity
  8
Body
100
AcDbLine
 10
21.1135
 20
-6.86018
 30
0
 11
21.1135
 21
-6.86018
 31
4
  0
SPLINE
  5
A30
330
A02
100
AcDbEntity
  8
Body
100
AcDbSpline
210
0
220
0
230
1
 70
8
 71
3
 72
26
 73
22
 74
0
 40
0
 40
0
 40
0
 40
0
 40
0.203487
 40
0.203487
 40
0.203487
 40
0.374017
 40
0.374017
 40
0.374017
 40
0.519198
 40
0.519198
 40
0.519198
 40
0.643511
 40
0.643511
 40
0.643511
 40
0.750808
 40
0.750808
 40
0.750808
 40
0.844409
 40
0.844409
 40
0.844409
 40
1
 40
1
 40
1
 40
1
 10
21.1135
 20
-6.86018
 30
4
 10
19.621
 20
-10.1383
 30
4
 10
17.3035
 20
-13.0435
 30
4
 10
14.406
 20
-15.1871
 30
4
 10
11.9829
 20
-16.9866
 30
4
 10
9.15804
 20
-18.2484
 30
4
 10
6.19248
 20
-18.8168
 30
4
 10
3.6698
 20
-19.3037
 30
4
 10
1.04853
 20
-19.288
 30
4
 10
-1.46338
 20
-18.7446
 30
4
 10
-3.61376
 20
-18.2815
 30
4
 10
-5.68215
 20
-17.4323
 30
4
 10
-7.52738
 20
-16.2342
 30
4
 10
-9.12022
 20
-15.2014
 30
4
 10
-10.546
 20
-13.9096
 30
4
 10
-11.7189
 20
-12.4167
 30
4
 10
-12.7426
 20
-11.1153
 30
4
 10
-13.5735
 20
-9.66155
 30
4
 10
-14.165
 20
-8.11498
 30
4
 10
-15.1518
 20
-5.54672
 30
4
 10
-15.4639
 20
-2.7145
 30
4
 10
-15
 20
8.88178e-15
 30
4
  0
LINE
  5
A31
330
A02
100
AcDbEntity
  8
Body
100
AcDbLine
 10
-15
 20
8.46545e-15
 30
0
 11
-15
 21
8.46545e-15
 31
4
  0
ARC
  5
A32
330
A02
100
AcDbEntity
  8
Body
100
AcDbCircle
 10
18.7499
 20
-6.0442
 30
0
 40
2.50042
100
AcDbArc
 50
-19.0465
 51
163.046
  0
LINE
  5
A33
330
A02
100
AcDbEntity
  8
Body
100
AcDbLine
 10
16.3582
 20
-5.31509
 30
0
 11
16.3582
 21
-5.31509
 31
4
  0
ARC
  5
A34
330
A02
100
AcDbEntity
  8
Body
100
AcDbCircle
 10
18.7499
 20
-6.0442
 30
4
 40
2.50042
100
AcDbArc
 50
-19.0465
 51
163.046
  0
LINE
  5
A35
330
A02
100
AcDbEntity
  8
Body
100
AcDbLine
 10
21.1135
 20
-6.86018
 30
0
 11
21.1135
 21
-6.86018
 31
4
  0
ARC
  5
A36
330
A02
100
AcDbEntity
  8
Body
100
AcDbCircle
 10
12.5
 20
-0.178417
 30
0
 40
2.50636
100
AcDbArc
 50
175.918
 51
4.0821
  0
LINE
  5
A37
330
A02
100
AcDbEntity
  8
Body
100
AcDbLine
 10
15
 20
-8e-15
 30
0
 11
15
 21
-8e-15
 31
4
  0
ARC
  5
A38
330
A02
100
AcDbEntity
  8
Body
100
AcDbCircle
 10
12.5
 20
-0.178417
 30
4
 40
2.50636
100
AcDbArc
 50
175.918
 51
4.0821
  0
LINE
  5
A39
330
A02
100
AcDbEntity
  8
Body
100
AcDbLine
 10
10
 20
0
 30
0
 11
10
 21
0
 31
4
  0
SPLINE
  5
A3A
330
A02
100
AcDbEntity
  8
Body
100
AcDbSpline
210
0
220
0
230
1
 70
8
 71
3
 72
29
 73
25
 74
0
 40
0
 40
0
 40
0
 40
0
 40
0.374883
 40
0.374883
 40
0.374883
 40
0.749766
 40
0.749766
 40
0.749766
 40
1.12465
 40
1.12465
 40
1.12465
 40
1.49953
 40
1.49953
 40
1.49953
 40
1.87441
 40
1.87441
 40
1.87441
 40
2.2493
 40
2.2493
 40
2.2493
 40
2.62418
 40
2.62418
 40
2.62418
 40
2.99906
 40
2.99906
 40
2.99906
 40
2.99906
 10
15
 20
-8.88178e-15
 30
0
 10
15.3008
 20
1.76679
 30
0
 10
15.2849
 20
3.64171
 30
0
 10
14.9172
 20
5.50326
 30
0
 10
14.5513
 20
7.36444
 30
0
 10
13.833
 20
9.2109
 30
0
 10
12.7748
 20
10.9107
 30
0
 10
11.7184
 20
12.6109
 30
0
 10
10.3222
 20
14.1629
 30
0
 10
8.6486
 20
15.4432
 30
0
 10
6.97656
 20
16.7244
 30
0
 10
5.02774
 20
17.7326
 30
0
 10
2.90968
 20
18.371
 30
0
 10
0.792807
 20
19.011
 30
0
 10
-1.49216
 20
19.2802
 30
0
 10
-3.80426
 20
19.1253
 30
0
 10
-6.1158
 20
18.9724
 30
0
 10
-8.45298
 20
18.3948
 30
0
 10
-10.659
 20
17.3939
 30
0
 10
-12.8651
 20
16.395
 30
0
 10
-14.9385
 20
14.9726
 30
0
 10
-16.7273
 20
13.1867
 30
0
 10
-18.517
 20
11.4027
 30
0
 10
-20.0206
 20
9.25572
 30
0
 10
-21.1135
 20
6.86018
 30
0
  0
LINE
  5
A3B
330
A02
100
AcDbEntity
  8
Body
100
AcDbLine
 10
-21.1135
 20
6.86018
 30
0
 11
-21.1135
 21
6.86018
 31
4
  0
SPLINE
  5
A3C
330
A02
100
AcDbEntity
  8
Body
100
AcDbSpline
210
0
220
0
230
1
 70
8
 71
3
 72
26
 73
22
 74
0
 40
0
 40
0
 40
0
 40
0
 40
0.203487
 40
0.203487
 40
0.203487
 40
0.374017
 40
0.374017
 40
0.374017
 40
0.519198
 40
0.519198
 40
0.519198
 40
0.643511
 40
0.643511
 40
0.643511
 40
0.750808
 40
0.750808
 40
0.750808
 40
0.844409
 40
0.844409
 40
0.844409
 40
1
 40
1
 40
1
 40
1
 10
-21.1135
 20
6.86018
 30
4
 10
-19.621
 20
10.1383
 30
4
 10
-17.3035
 20
13.0435
 30
4
 10
-14.406
 20
15.1871
 30
4
 10
-11.9829
 20
16.9866
 30
4
 10
-9.15804
 20
18.2484
 30
4
 10
-6.19248
 20
18.8168
 30
4
 10
-3.6698
 20
19.3037
 30
4
 10
-1.04853
 20
19.288
 30
4
 10
1.46338
 20
18.7446
 30
4
 10
3.61376
 20
18.2815
 30
4
 10
5.68215
 20
17.4323
 30
4
 10
7.52738
 20
16.2342
 30
4
 10
9.12022
 20
15.2014
 30
4
 10
10.546
 20
13.9096
 30
4
 10
11.7189
 20
12.4167
 30
4
 10
12.7426
 20
11.1153
 30
4
 10
13.5735
 20
9.66155
 30
4
 10
14.165
 20
8.11498
 30
4
 10
15.1518
 20
5.54672
 30
4
 10
15.4639
 20
2.7145
 30
4
 10
15
 20
-8.88178e-15
 30
4
  0
LINE
  5
A3D
330
A02
100
AcDbEntity
  8
Body
100
AcDbLine
 10
15
 20
-8e-15
 30
0
 11
15
 21
-8e-15
 31
4
  0
ARC
  5
A3E
330
A02
100
AcDbEntity
  8
Body
100
AcDbCircle
 10
-18.7499
 20
6.0442
 30
0
 40
2.50042
100
AcDbArc
 50
160.954
 51
-16.9535
  0
LINE
  5
A3F
330
A02
100
AcDbEntity
  8
Body
100
AcDbLine
 10
-16.3582
 20
5.31509
 30
0
 11
-16.3582
 21
5.31509
 31
4
  0
ARC
  5
A40
330
A02
100
AcDbEntity
  8
Body
100
AcDbCircle
 10
-18.7499
 20
6.0442
 30
4
 40
2.50042
100
AcDbArc
 50
160.954
 51
-16.9535
  0
LINE
  5
A41
330
A02
100
AcDbEntity
  8
Body
100
AcDbLine
 10
-21.1135
 20
6.86018
 30
0
 11
-21.1135
 21
6.86018
 31
4
  0
SPLINE
  5
A42
330
A02
100
AcDbEntity
  8
Body
100
AcDbSpline
210
0
220
0
230
1
 70
8
 71
3
 72
29
 73
25
 74
0
 40
0
 40
0
 40
0
 40
0
 40
0.374883
 40
0.374883
 40
0.374883
 40
0.749766
 40
0.749766
 40
0.749766
 40
1.12465
 40
1.12465
 40
1.12465
 40
1.49953
 40
1.49953
 40
1.49953
 40
1.87441
 40
1.87441
 40
1.87441
 40
2.2493
 40
2.2493
 40
2.2493
 40
2.62418
 40
2.62418
 40
2.62418
 40
2.99906
 40
2.99906
 40
2.99906
 40
2.99906
 10
10
 20
-2.22045e-16
 30
0
 10
10.3005
 20
1.1777
 30
0
 10
10.3899
 20
2.46372
 30
0
 10
10.2263
 20
3.77268
 30
0
 10
10.064
 20
5.08111
 30
0
 10
9.6482
 20
6.41145
 30
0
 10
8.97279
 20
7.66349
 30
0
 10
8.29881
 20
8.91552
 30
0
 10
7.36504
 20
10.088
 30
0
 10
6.20549
 20
11.0807
 30
0
 10
5.04732
 20
12.0739
 30
0
 10
3.6637
 20
12.8861
 30
0
 10
2.12751
 20
13.4326
 30
0
 10
0.59243
 20
13.9802
 30
0
 10
-1.09442
 20
14.2611
 30
0
 10
-2.82881
 20
14.2214
 30
0
 10
-4.56254
 20
14.1832
 30
0
 10
-6.34265
 20
13.8236
 30
0
 10
-8.04648
 20
13.1307
 30
0
 10
-9.75026
 20
12.4394
 30
0
 10
-11.3764
 20
11.4144
 30
0
 10
-12.8007
 20
10.0912
 30
0
 10
-14.2255
 20
8.76971
 30
0
 10
-15.4472
 20
7.15031
 30
0
 10
-16.3582
 20
5.31509
 30
0
  0
LINE
  5
A43
330
A02
100
AcDbEntity
  8
Body
100
AcDbLine
 10
-16.3582
 20
5.31509
 30
0
 11
-16.3582
 21
5.31509
 31
4
  0
SPLINE
  5
A44
330
A02
100
AcDbEntity
  8
Body
100
AcDbSpline
210
0
220
0
230
1
 70
8
 71
3
 72
23
 73
19
 74
0
 40
0
 40
0
 40
0
 40
0
 40
0.240735
 40
0.240735
 40
0.240735
 40
0.42715
 40
0.42715
 40
0.42715
 40
0.574489
 40
0.574489
 40
0.574489
 40
0.693838
 40
0.693838
 40
0.693838
 40
0.873229
 40
0.873229
 40
0.873229
 40
1
 40
1
 40
1
 40
1
 10
-16.3582
 20
5.31509
 30
4
 10
-14.9646
 20
8.13186
 30
4
 10
-12.7613
 20
10.5538
 30
4
 10
-10.0458
 20
12.1433
 30
4
 10
-7.94905
 20
13.3774
 30
4
 10
-5.55291
 20
14.1095
 30
4
 10
-3.12052
 20
14.2118
 30
4
 10
-1.19989
 20
14.2955
 30
4
 10
0.739897
 20
13.9862
 30
4
 10
2.52937
 20
13.2821
 30
4
 10
3.97852
 20
12.7135
 30
4
 10
5.32767
 20
11.8866
 30
4
 10
6.47932
 20
10.839
 30
4
 10
8.21226
 20
9.26975
 30
4
 10
9.49017
 20
7.18622
 30
4
 10
10.0228
 20
4.90622
 30
4
 10
10.4021
 20
3.29921
 30
4
 10
10.4087
 20
1.60044
 30
4
 10
10
 20
0
 30
4
  0
LINE
  5
A45
330
A02
100
AcDbEntity
  8
Body
100
AcDbLine
 10
10
 20
0
 30
0
 11
10
 21
0
 31
4
  0
LINE
  5
A46
330
A02
100
AcDbEntity
  8
Body
100
AcDbLine
 10
-4
 20
-4
 30
0
 11
-4
 21
4
 31
0
  0
LINE
  5
A47
330
A02
100
AcDbEntity
  8
Body
100
AcDbLine
 10
-4
 20
4
 30
0
 11
-4
 21
4
 31
4
  0
LINE
  5
A48
330
A02
100
AcDbEntity
  8
Body
100
AcDbLine
 10
-4
 20
4
 30
4
 11
-4
 21
-4
 31
4
  0
LINE
  5
A49
330
A02
100
AcDbEntity
  8
Body
100
AcDbLine
 10
-4
 20
-4
 30
0
 11
-4
 21
-4
 31
4
  0
LINE
  5
A4A
330
A02
100
AcDbEntity
  8
Body
100
AcDbLine
 10
4
 20
-4
 30
0
 11
-4
 21
-4
 31
0
  0
LINE
  5
A4B
330
A02
100
AcDbEntity
  8
Body
100
AcDbLine
 10
-4
 20
-4
 30
0
 11
-4
 21
-4
 31
4
  0
LINE
  5
A4C
330
A02
100
AcDbEntity
  8
Body
100
AcDbLine
 10
-4
 20
-4
 30
4
 11
4
 21
-4
 31
4
  0
LINE
  5
A4D
330
A02
100
AcDbEntity
  8
Body
100
AcDbLine
 10
4
 20
-4
 30
0
 11
4
 21
-4
 31
4
  0
LINE
  5
A4E
330
A02
100
AcDbEntity
  8
Body
100
AcDbLine
 10
4
 20
4
 30
0
 11
4
 21
-4
 31
0
  0
LINE
  5
A4F
330
A02
100
AcDbEntity
  8
Body
100
AcDbLine
 10
4
 20
-4
 30
0
 11
4
 21
-4
 31
4
  0
LINE
  5
A50
330
A02
100
AcDbEntity
  8
Body
100
AcDbLine
 10
4
 20
-4
 30
4
 11
4
 21
4
 31
4
  0
LINE
  5
A51
330
A02
100
AcDbEntity
  8
Body
100
AcDbLine
 10
4
 20
4
 30
0
 11
4
 21
4
 31
4
  0
LINE
  5
A52
330
A02
100
AcDbEntity
  8
Body
100
AcDbLine
 10
-4
 20
4
 30
0
 11
4
 21
4
 31
0
  0
LINE
  5
A53
330
A02
100
AcDbEntity
  8
Body
100
AcDbLine
 10
4
 20
4
 30
0
 11
4
 21
4
 31
4
  0
LINE
  5
A54
330
A02
100
AcDbEntity
  8
Body
100
AcDbLine
 10
4
 20
4
 30
4
 11
-4
 21
4
 31
4
  0
LINE
  5
A55
330
A02
100
AcDbEntity
  8
Body
100
AcDbLine
 10
-4
 20
4
 30
0
 11
-4
 21
4
 31
4
  0
ENDSEC
  0
SECTION
  2
OBJECTS
  0
DICTIONARY
  5
F000
330
0
100
AcDbDictionary
  3
ACAD_GROUP
350
F001
  0
DICTIONARY
  5
F001
330
F000
100
AcDbDictionary
  0
ENDSEC
  0
EOF